<?xml version="1.0" encoding="UTF-8" standalone="no"?>
<svg
   width="600px"
   height="600px"
   viewBox="0 0 60 60"
   version="1.1"
   id="svg1"
   xmlns="http://www.w3.org/2000/svg"
   xmlns:svg="http://www.w3.org/2000/svg">
  <defs
     id="defs1" />
  <g
     id="layer1">
    <path
       id="text5"
       style="font-size:50.8px;line-height:0;-inkscape-font-specification:sans-serif;fill:#000000;fill-opacity:1;stroke:none;stroke-width:0.531347"
       d="m 6.671233,5.2390958 c 0,16.0604872 0,32.1209732 0,48.1814602 2.0243503,0 4.048701,0 6.073051,0 0,-6.815565 0,-13.631129 0,-20.446694 0.927627,0 1.855254,0 2.782881,0 0.397712,6.771551 3.083012,13.810825 8.810418,17.817423 6.112712,4.400888 14.146463,4.484519 21.31311,3.444872 2.542791,-0.480534 5.697843,-0.926732 7.678074,-2.237852 0,-8.120996 0,-16.241992 0,-24.362988 -10.496444,-0.0022 -20.987629,9.37e-4 -31.47525,0.0076 0.355826,-4.928856 2.292463,-9.887967 5.817654,-13.403866 3.181407,-2.684706 7.402584,-4.018896 11.55322,-3.640482 3.845324,0.167252 7.613345,1.22234 11.135466,2.737978 0.764709,-1.754362 1.529417,-3.508724 2.294126,-5.263086 C 47.197989,5.6338248 41.164259,5.0824947 35.253957,5.2390958 c -9.527574,0 -19.055149,0 -28.582724,0 z m 6.073051,5.3309962 c 3.435469,0 6.870938,0 10.306407,0 -4.601947,4.430183 -7.218851,10.726613 -7.55373,17.072775 -0.917559,0 -1.835118,0 -2.752677,0 0,-5.690925 0,-11.38185 0,-17.072775 z m 9.15042,22.40377 c 8.453671,0 16.907341,0 25.361012,0 0,5.128492 0,10.256983 0,15.385475 -5.328377,1.641467 -11.33103,1.647246 -16.493179,-0.58244 -4.845373,-2.216445 -7.817685,-7.250584 -8.549481,-12.398619 -0.141061,-0.796338 -0.245772,-1.598989 -0.318352,-2.404416 z" />
  </g>
</svg>
